<svg width="20" height="20" viewBox="0 0 20 20" fill="none" xmlns="http://www.w3.org/2000/svg">
<g id="Objects &#38; Things/clock-eight">
<path id="Vector" d="M9.16634 1.66699C7.51817 1.66699 5.907 2.15573 4.53659 3.07141C3.16618 3.98709 2.09808 5.28858 1.46735 6.8113C0.836619 8.33401 0.671591 10.0096 0.993134 11.6261C1.31468 13.2426 2.10835 14.7274 3.27379 15.8929C4.43923 17.0583 5.92408 17.852 7.54059 18.1735C9.1571 18.4951 10.8327 18.3301 12.3554 17.6993C13.8781 17.0686 15.1796 16.0005 16.0953 14.6301C17.0109 13.2597 17.4997 11.6485 17.4997 10.0003C17.4997 8.90598 17.2841 7.82234 16.8653 6.8113C16.4466 5.80025 15.8327 4.88159 15.0589 4.10777C14.2851 3.33395 13.3664 2.72012 12.3554 2.30133C11.3443 1.88254 10.2607 1.66699 9.16634 1.66699ZM9.16634 16.667C7.8478 16.667 6.55887 16.276 5.46254 15.5435C4.36622 14.8109 3.51173 13.7697 3.00715 12.5515C2.50256 11.3334 2.37054 9.99293 2.62778 8.69972C2.88501 7.40652 3.51995 6.21863 4.4523 5.28628C5.38465 4.35393 6.57254 3.71899 7.86574 3.46176C9.15895 3.20452 10.4994 3.33654 11.7176 3.84113C12.9357 4.34571 13.9769 5.2002 14.7095 6.29652C15.442 7.39285 15.833 8.68178 15.833 10.0003C15.833 11.7684 15.1306 13.4641 13.8804 14.7144C12.6301 15.9646 10.9345 16.667 9.16634 16.667ZM9.16634 5.00033C8.94533 5.00033 8.73337 5.08812 8.57709 5.2444C8.42081 5.40068 8.33301 5.61265 8.33301 5.83366V9.51699L6.58301 10.5253C6.42248 10.6163 6.29667 10.758 6.22533 10.9281C6.15399 11.0983 6.14114 11.2873 6.1888 11.4656C6.23646 11.6439 6.34194 11.8013 6.48869 11.9131C6.63544 12.025 6.81516 12.0849 6.99968 12.0837C7.14566 12.0847 7.28934 12.0473 7.41634 11.9753L9.58301 10.7253L9.65801 10.6503L9.79134 10.542C9.82393 10.5007 9.85188 10.456 9.87468 10.4087C9.90184 10.3639 9.92418 10.3164 9.94135 10.267C9.96401 10.214 9.97808 10.1577 9.98301 10.1003L9.99968 10.0003V5.83366C9.99968 5.61265 9.91188 5.40068 9.7556 5.2444C9.59932 5.08812 9.38736 5.00033 9.16634 5.00033Z" fill="#1B1B1B"/>
</g>
</svg>
