<svg width="20" height="20" viewBox="0 0 20 20" fill="none" xmlns="http://www.w3.org/2000/svg">
<g id="Objects &#38; Things/money-bill">
<path id="Vector" d="M4.99967 9.16699C4.83486 9.16699 4.67374 9.21587 4.5367 9.30743C4.39966 9.399 4.29285 9.52915 4.22977 9.68142C4.1667 9.83369 4.1502 10.0012 4.18235 10.1629C4.21451 10.3246 4.29387 10.473 4.41042 10.5896C4.52696 10.7061 4.67545 10.7855 4.8371 10.8176C4.99875 10.8498 5.16631 10.8333 5.31858 10.7702C5.47085 10.7072 5.601 10.6003 5.69257 10.4633C5.78413 10.3263 5.83301 10.1651 5.83301 10.0003C5.83301 9.77931 5.74521 9.56735 5.58893 9.41107C5.43265 9.25479 5.22069 9.16699 4.99967 9.16699ZM14.9997 9.16699C14.8349 9.16699 14.6737 9.21587 14.5367 9.30743C14.3997 9.399 14.2928 9.52915 14.2298 9.68142C14.1667 9.83369 14.1502 10.0012 14.1824 10.1629C14.2145 10.3246 14.2939 10.473 14.4104 10.5896C14.527 10.7061 14.6754 10.7855 14.8371 10.8176C14.9987 10.8498 15.1663 10.8333 15.3186 10.7702C15.4708 10.7072 15.601 10.6003 15.6926 10.4633C15.7841 10.3263 15.833 10.1651 15.833 10.0003C15.833 9.77931 15.7452 9.56735 15.5889 9.41107C15.4326 9.25479 15.2207 9.16699 14.9997 9.16699ZM16.6663 4.16699H3.33301C2.66997 4.16699 2.03408 4.43038 1.56524 4.89923C1.0964 5.36807 0.833008 6.00395 0.833008 6.66699V13.3337C0.833008 13.9967 1.0964 14.6326 1.56524 15.1014C2.03408 15.5703 2.66997 15.8337 3.33301 15.8337H16.6663C17.3294 15.8337 17.9653 15.5703 18.4341 15.1014C18.9029 14.6326 19.1663 13.9967 19.1663 13.3337V6.66699C19.1663 6.00395 18.9029 5.36807 18.4341 4.89923C17.9653 4.43038 17.3294 4.16699 16.6663 4.16699ZM17.4997 13.3337C17.4997 13.5547 17.4119 13.7666 17.2556 13.9229C17.0993 14.0792 16.8874 14.167 16.6663 14.167H3.33301C3.11199 14.167 2.90003 14.0792 2.74375 13.9229C2.58747 13.7666 2.49967 13.5547 2.49967 13.3337V6.66699C2.49967 6.44598 2.58747 6.23402 2.74375 6.07774C2.90003 5.92146 3.11199 5.83366 3.33301 5.83366H16.6663C16.8874 5.83366 17.0993 5.92146 17.2556 6.07774C17.4119 6.23402 17.4997 6.44598 17.4997 6.66699V13.3337ZM9.99967 7.50033C9.50522 7.50033 9.02187 7.64695 8.61075 7.92165C8.19963 8.19636 7.87919 8.5868 7.68997 9.04362C7.50076 9.50043 7.45125 10.0031 7.54771 10.4881C7.64417 10.973 7.88228 11.4185 8.23191 11.7681C8.58154 12.1177 9.027 12.3558 9.51195 12.4523C9.9969 12.5488 10.4996 12.4992 10.9564 12.31C11.4132 12.1208 11.8036 11.8004 12.0783 11.3893C12.3531 10.9781 12.4997 10.4948 12.4997 10.0003C12.4997 9.33728 12.2363 8.7014 11.7674 8.23256C11.2986 7.76372 10.6627 7.50033 9.99967 7.50033ZM9.99967 10.8337C9.83486 10.8337 9.67374 10.7848 9.5367 10.6932C9.39966 10.6016 9.29285 10.4715 9.22977 10.3192C9.1667 10.167 9.1502 9.9994 9.18235 9.83775C9.21451 9.6761 9.29387 9.52761 9.41042 9.41107C9.52696 9.29453 9.67545 9.21516 9.8371 9.183C9.99875 9.15085 10.1663 9.16735 10.3186 9.23043C10.4708 9.2935 10.601 9.40031 10.6926 9.53735C10.7841 9.67439 10.833 9.83551 10.833 10.0003C10.833 10.2213 10.7452 10.4333 10.5889 10.5896C10.4326 10.7459 10.2207 10.8337 9.99967 10.8337Z" fill="#1B1B1B"/>
</g>
</svg>
