<svg width="31" height="25" viewBox="0 0 31 25" fill="none" xmlns="http://www.w3.org/2000/svg">
<path d="M13.5369 18.2061C13.5369 19.9495 12.8999 21.4583 11.6258 22.7324C10.3517 24.0065 8.80938 24.6436 6.99883 24.6436C5.3224 24.6436 3.81361 24.0065 2.47247 22.7324C1.19838 21.4583 0.42722 19.9831 0.158991 18.3066C-0.31041 14.9538 0.259577 11.6344 1.86895 8.34863C3.54538 4.99577 5.95945 2.38053 9.11114 0.50293C10.117 -0.167643 10.9552 -0.167643 11.6258 0.50293C12.3634 1.10645 12.2628 1.74349 11.324 2.41406C10.1841 3.35286 9.11114 4.49284 8.10528 5.83398C7.16648 7.17513 6.52943 8.75098 6.19415 10.5615C5.99298 11.5674 6.32826 12.0703 7.20001 12.0703C9.01055 12.0703 10.5193 12.6738 11.7264 13.8809C12.9334 15.0879 13.5369 16.5296 13.5369 18.2061ZM30.3348 18.2061C30.3348 19.9495 29.6977 21.4583 28.4236 22.7324C27.1496 24.0065 25.6072 24.6436 23.7967 24.6436C22.1203 24.6436 20.6115 24.0065 19.2703 22.7324C17.9962 21.4583 17.2251 19.9831 16.9568 18.3066C16.4874 14.9538 17.0574 11.6344 18.6668 8.34863C20.3432 4.99577 22.7573 2.38053 25.909 0.50293C26.9149 -0.167643 27.7531 -0.167643 28.4236 0.50293C29.1613 1.10645 29.0607 1.74349 28.1219 2.41406C26.9819 3.35286 25.909 4.49284 24.9031 5.83398C23.9643 7.17513 23.3273 8.75098 22.992 10.5615C22.7908 11.5674 23.1261 12.0703 23.9979 12.0703C25.8084 12.0703 27.3172 12.6738 28.5242 13.8809C29.7313 15.0879 30.3348 16.5296 30.3348 18.2061Z" fill="#3F4521"/>
</svg>
